<?xml version="1.0" standalone="no"?>
<!DOCTYPE svg PUBLIC "-//W3C//DTD SVG 20010904//EN"
 "http://www.w3.org/TR/2001/REC-SVG-20010904/DTD/svg10.dtd">
<svg version="1.0" xmlns="http://www.w3.org/2000/svg"
 width="512.000000pt" height="512.000000pt" viewBox="0 0 512.000000 512.000000"
 preserveAspectRatio="xMidYMid meet">

<g transform="translate(0.000000,512.000000) scale(0.100000,-0.100000)"
fill="#000000" stroke="none">
<path d="M194 4960 c-60 -19 -126 -73 -158 -130 -27 -48 -31 -65 -31 -130 1
-90 21 -135 88 -197 71 -66 110 -73 386 -73 207 0 241 -3 276 -19 47 -21 89
-67 104 -113 6 -18 153 -654 326 -1413 174 -759 321 -1400 327 -1425 16 -68
91 -218 141 -281 25 -31 65 -72 89 -92 40 -33 147 -102 171 -110 5 -1 -14 -27
-42 -56 -246 -253 -128 -667 216 -756 249 -65 506 104 553 365 20 112 -9 239
-75 331 l-35 49 751 0 750 0 -25 -33 c-136 -179 -112 -446 54 -600 73 -68 143
-103 238 -119 269 -45 523 168 522 440 -1 120 -35 213 -111 305 l-40 47 31 26
c84 71 114 204 68 305 -30 66 -78 115 -138 143 -45 21 -54 21 -1260 26 -918 4
-1220 8 -1236 17 -53 30 -122 138 -102 158 2 3 409 38 904 80 1151 96 1074 88
1096 115 25 30 23 64 -6 97 l-24 28 -1002 -83 c-551 -46 -1004 -81 -1007 -79
-3 3 -127 540 -277 1194 l-272 1188 33 3 c19 2 118 -4 222 -12 242 -21 257
-20 281 4 29 29 27 83 -4 108 -21 16 -60 22 -263 37 -328 24 -303 17 -324 95
-56 218 -196 397 -381 488 -145 72 -167 75 -493 78 -163 2 -304 -1 -321 -6z
m620 -160 c187 -48 341 -182 404 -354 11 -28 167 -694 347 -1481 180 -786 337
-1450 348 -1475 28 -58 99 -129 162 -160 l50 -25 1215 -5 c943 -4 1220 -8
1237 -17 59 -34 79 -103 48 -163 -33 -64 48 -61 -1297 -58 l-1223 3 -66 22
c-171 59 -320 208 -369 373 -11 36 -164 695 -340 1465 -176 770 -327 1419
-336 1443 -23 61 -112 154 -176 183 -50 23 -66 24 -320 29 -251 5 -268 6 -295
26 -39 29 -55 63 -49 107 5 40 36 83 71 97 11 5 131 9 266 9 213 1 256 -2 323
-19z m1504 -3920 c106 -46 176 -155 176 -275 0 -119 -60 -215 -169 -273 -70
-37 -187 -38 -259 -3 -63 31 -122 90 -149 150 -31 67 -31 188 1 252 39 80 122
148 207 170 48 13 137 3 193 -21z m2176 1 c63 -31 109 -74 141 -132 27 -49 30
-63 30 -144 0 -74 -4 -97 -23 -132 -35 -66 -79 -110 -140 -140 -48 -24 -69
-28 -137 -27 -95 0 -159 28 -218 93 -47 52 -63 84 -75 151 -28 153 59 296 211
346 55 18 157 10 211 -15z"/>
<path d="M2233 4245 c-42 -29 -37 -105 9 -125 13 -6 612 -57 1331 -114 1066
-85 1313 -108 1333 -121 32 -21 64 -73 64 -105 0 -48 -361 -1713 -377 -1737
-26 -39 -64 -52 -184 -63 -103 -9 -116 -13 -136 -36 -28 -31 -29 -64 -4 -95
18 -22 25 -24 103 -21 112 3 203 19 247 42 50 25 104 87 125 141 21 57 376
1719 376 1762 0 101 -75 215 -167 255 -56 24 -72 25 -858 87 -313 25 -850 68
-1193 95 -342 28 -628 50 -635 50 -7 0 -22 -7 -34 -15z"/>
<path d="M2539 3366 c-20 -7 -50 -22 -67 -34 -38 -28 -82 -114 -82 -163 0
-105 127 -112 149 -9 4 19 18 42 34 54 48 35 96 3 112 -76 13 -64 110 -69 135
-8 24 57 -4 134 -69 193 -60 54 -137 70 -212 43z"/>
<path d="M3832 3365 c-60 -26 -94 -57 -118 -109 -48 -104 -19 -176 66 -167 23
3 60 49 60 75 0 28 39 66 69 66 28 0 71 -42 71 -70 0 -33 17 -57 47 -68 60
-20 110 29 99 99 -9 56 -28 89 -75 132 -61 55 -150 72 -219 42z"/>
<path d="M3080 3264 c-149 -40 -216 -154 -190 -324 35 -221 222 -371 424 -339
75 13 127 39 191 100 89 84 131 196 123 328 -8 132 -65 203 -193 236 -77 20
-279 19 -355 -1z m323 -145 c20 -5 47 -20 58 -32 18 -19 20 -31 17 -97 -6 -90
-30 -143 -89 -193 -143 -123 -350 -6 -352 199 -1 76 17 108 70 122 51 13 249
14 296 1z"/>
<path d="M410 3240 c-25 -25 -26 -71 -1 -101 19 -24 20 -24 241 -24 221 0 222
0 241 24 26 32 24 73 -4 99 -22 21 -31 22 -240 22 -204 0 -218 -1 -237 -20z"/>
<path d="M172 2607 c-31 -33 -29 -80 4 -106 26 -20 37 -21 416 -21 l389 0 24
25 c14 13 25 36 25 50 0 14 -11 37 -25 50 l-24 25 -394 0 -394 0 -21 -23z"/>
<path d="M736 1969 c-33 -26 -36 -79 -6 -109 19 -19 33 -20 239 -20 l220 0 20
26 c34 43 26 86 -20 109 -22 12 -72 15 -227 15 -186 0 -201 -1 -226 -21z"/>
</g>
</svg>
