<?xml version="1.0" standalone="no"?>
<!DOCTYPE svg PUBLIC "-//W3C//DTD SVG 20010904//EN"
 "http://www.w3.org/TR/2001/REC-SVG-20010904/DTD/svg10.dtd">
<svg version="1.0" xmlns="http://www.w3.org/2000/svg"
 width="512.000000pt" height="512.000000pt" viewBox="0 0 512.000000 512.000000"
 preserveAspectRatio="xMidYMid meet">

<g transform="translate(0.000000,512.000000) scale(0.100000,-0.100000)"
fill="#000000" stroke="none">
<path d="M2387 5105 c-289 -36 -667 -147 -744 -217 -18 -17 -47 -23 -165 -34
-276 -25 -277 -26 -302 -184 -12 -74 -12 -75 -51 -89 -151 -55 -474 -366 -653
-629 -206 -302 -339 -693 -383 -1126 -15 -151 -6 -512 16 -656 42 -274 124
-535 246 -779 91 -184 182 -323 344 -527 147 -184 246 -284 359 -358 l86 -58
0 -82 c0 -103 21 -177 59 -209 49 -41 149 -56 426 -67 271 -11 415 -20 740
-50 486 -45 527 -45 1250 -20 272 9 318 19 389 81 52 46 72 102 87 243 6 56
12 101 13 102 35 18 160 109 217 157 212 181 374 426 532 803 150 356 195 606
184 1014 -11 393 -75 770 -184 1083 -116 334 -357 683 -604 875 l-66 52 -6
117 c-3 65 -11 134 -18 153 -17 49 -62 109 -98 131 -83 50 -237 71 -451 60
-131 -6 -148 -5 -172 11 -45 31 -198 98 -305 133 -216 73 -512 100 -746 70z
m338 -95 c157 -13 237 -29 385 -77 l115 -38 -640 -5 c-352 -3 -656 -3 -675 -1
-30 3 -19 8 70 32 204 56 367 82 596 98 12 0 78 -4 149 -9z m1211 -264 c54
-17 86 -44 103 -89 14 -37 15 -1339 1 -1837 -10 -352 -17 -505 -60 -1305 -13
-232 -20 -464 -18 -620 6 -537 4 -627 -14 -667 -33 -73 -74 -80 -593 -98 -356
-13 -551 -7 -965 30 -223 19 -567 42 -893 59 -148 8 -194 14 -215 27 l-25 17
9 396 c12 578 11 1142 -5 1776 -15 626 -11 1679 8 1915 26 323 30 362 35 368
6 6 73 11 491 36 329 20 2068 13 2141 -8z m-2786 -392 c-5 -76 -10 -172 -10
-211 0 -70 -1 -73 -36 -105 -37 -34 -256 -307 -313 -391 -106 -156 -208 -428
-260 -697 -40 -210 -45 -264 -45 -500 0 -285 25 -445 103 -665 108 -300 351
-654 516 -751 l48 -28 -7 -110 c-3 -61 -6 -150 -6 -198 0 -58 -4 -88 -11 -88
-19 0 -131 95 -205 172 -97 103 -231 272 -326 412 -180 268 -326 654 -385
1016 -28 174 -25 597 5 770 70 412 216 758 434 1029 114 143 283 316 395 406
59 47 108 83 110 81 2 -1 -1 -65 -7 -142z m3145 -160 c386 -435 536 -808 611
-1518 23 -220 16 -583 -14 -741 -38 -196 -112 -409 -220 -635 -107 -221 -212
-378 -346 -519 -79 -82 -213 -194 -225 -186 -4 2 -11 66 -14 141 l-7 136 95
100 c174 183 279 346 368 573 98 248 175 642 193 981 24 469 -163 982 -470
1284 l-96 95 0 215 1 215 27 -31 c15 -17 59 -66 97 -110z m-3208 -477 c-24
-30 -74 -113 -111 -186 -175 -344 -236 -601 -236 -997 0 -282 32 -486 110
-709 68 -192 218 -455 280 -492 30 -17 30 -18 29 -108 -1 -143 0 -142 -114
-23 -255 265 -417 599 -470 973 -19 129 -19 399 -1 545 44 350 145 667 278
871 30 46 93 131 139 189 47 58 96 121 109 140 l25 35 3 -92 3 -92 -44 -54z
m3161 20 c121 -139 258 -385 321 -577 95 -290 109 -562 51 -962 -61 -410 -154
-696 -305 -928 -37 -58 -205 -251 -225 -258 -4 -1 -5 30 -3 70 5 68 8 76 43
113 215 229 402 788 426 1270 10 210 -21 446 -88 654 -61 192 -170 390 -253
459 -36 29 -36 29 -42 130 -3 59 -2 102 3 101 5 0 37 -33 72 -72z m-3099
-1767 c6 -162 11 -351 11 -419 l0 -124 -25 23 c-32 30 -102 149 -158 270 -126
270 -175 533 -164 894 10 350 80 614 250 940 l62 118 7 -703 c3 -387 11 -837
17 -999z m3085 1481 c108 -163 194 -394 232 -626 24 -144 24 -406 0 -568 -48
-336 -194 -748 -327 -927 l-41 -55 6 160 c3 88 17 403 31 700 14 297 28 711
31 920 4 349 9 465 19 465 2 0 24 -31 49 -69z"/>
<path d="M1904 4189 c-9 -18 -35 -77 -58 -133 -48 -114 -119 -236 -230 -394
-95 -135 -133 -173 -183 -181 -29 -5 -39 -11 -41 -28 -3 -18 4 -24 37 -34 35
-10 46 -10 81 6 54 24 130 107 242 265 51 71 93 128 95 127 1 -2 -2 -32 -8
-68 -13 -77 -6 -180 15 -231 47 -110 163 -104 255 15 l46 59 11 -44 c22 -88
61 -137 127 -158 41 -13 78 -7 140 20 39 18 42 18 76 0 78 -39 144 -34 210 15
l34 25 11 -23 c13 -26 60 -35 83 -15 9 7 41 65 71 128 57 122 125 232 161 264
39 35 44 10 26 -120 -14 -96 -15 -127 -6 -170 25 -109 97 -137 190 -73 38 27
45 29 53 15 22 -40 113 -59 161 -35 12 6 41 30 65 52 32 32 42 37 42 23 0 -29
31 -74 65 -92 58 -31 186 5 193 54 6 43 -24 63 -92 60 l-61 -3 -3 47 c-2 27 4
88 12 138 9 49 16 113 16 140 0 44 -3 52 -26 62 -17 8 -31 9 -41 2 -9 -6 -42
-74 -73 -151 -72 -179 -112 -243 -151 -243 -40 0 -35 61 17 213 38 111 41 138
18 161 -38 38 -71 8 -113 -105 -17 -46 -41 -104 -54 -128 -23 -45 -93 -131
-107 -131 -17 0 -20 50 -8 155 13 127 7 172 -27 209 -41 44 -118 32 -173 -27
-23 -24 -25 -24 -51 -9 -15 8 -35 13 -44 9 -9 -3 -33 -39 -53 -79 -56 -112
-139 -232 -182 -261 -25 -18 -51 -27 -76 -27 l-38 0 60 64 c137 147 159 306
49 360 -33 16 -45 17 -77 7 -51 -15 -122 -87 -157 -159 -25 -51 -28 -68 -28
-154 0 -92 -1 -98 -23 -108 -57 -26 -96 0 -113 74 -16 73 -2 148 69 364 61
188 62 204 5 210 -40 4 -51 -12 -108 -148 -92 -222 -212 -439 -252 -454 -59
-23 -64 131 -13 369 34 157 41 265 20 290 -7 8 -25 15 -41 15 -22 0 -32 -7
-45 -31z m734 -387 c4 -43 -37 -118 -100 -178 l-50 -49 5 63 c6 70 38 134 88
176 38 33 53 29 57 -12z"/>
</g>
</svg>
