<?xml version="1.0" standalone="no"?>
<!DOCTYPE svg PUBLIC "-//W3C//DTD SVG 20010904//EN"
 "http://www.w3.org/TR/2001/REC-SVG-20010904/DTD/svg10.dtd">
<svg version="1.0" xmlns="http://www.w3.org/2000/svg"
 width="512.000000pt" height="512.000000pt" viewBox="0 0 512.000000 512.000000"
 preserveAspectRatio="xMidYMid meet">

<g transform="translate(0.000000,512.000000) scale(0.100000,-0.100000)"
fill="#000000" stroke="none">
<path d="M3370 5110 c-75 -20 -2393 -919 -2409 -934 -15 -15 -16 -134 -19
-1409 -2 -969 1 -1411 8 -1456 16 -91 58 -168 129 -233 101 -94 132 -102 409
-106 l232 -3 0 -163 0 -163 -81 -6 c-63 -4 -95 -12 -145 -37 -233 -115 -231
-452 4 -567 l57 -28 285 0 285 0 57 28 c65 32 121 89 152 156 20 44 21 63 24
413 l3 368 249 0 250 0 0 -164 0 -163 -83 -5 c-102 -7 -159 -30 -226 -93 -67
-63 -95 -129 -95 -225 -1 -125 57 -221 166 -281 l63 -34 285 0 c271 0 287 1
332 22 63 29 132 94 160 151 22 46 23 56 28 417 l5 370 185 5 c223 7 266 20
361 108 71 65 113 142 129 233 8 45 10 443 8 1314 l-3 1250 -22 59 c-43 114
-134 204 -245 244 l-47 16 -3 316 -3 315 -32 66 c-65 131 -196 218 -341 225
-42 2 -93 -1 -112 -6z m171 -155 c63 -22 118 -70 145 -129 23 -50 24 -57 24
-338 l0 -288 -1142 0 c-628 0 -1139 2 -1137 4 3 3 1466 568 1844 712 151 58
193 64 266 39z m311 -917 c57 -17 133 -88 155 -146 17 -45 18 -112 18 -1312 0
-1146 -2 -1268 -16 -1301 -23 -51 -75 -107 -123 -132 l-41 -22 -1285 0 -1285
0 -40 22 c-52 28 -99 78 -122 128 -17 38 -18 115 -21 1408 l-2 1367 1361 0
c1023 0 1372 -3 1401 -12z m-1642 -3540 c0 -212 -1 -225 -23 -263 -14 -26 -37
-48 -67 -62 -42 -22 -55 -23 -280 -23 -208 0 -240 3 -276 19 -86 39 -120 147
-73 231 39 70 74 84 222 90 159 6 157 5 157 137 l0 93 170 0 170 0 0 -222z
m1130 -3 c0 -252 -2 -263 -67 -312 l-36 -28 -236 -3 c-130 -2 -251 0 -269 3
-43 8 -108 67 -123 112 -25 77 17 168 95 204 32 14 65 19 153 19 108 0 112 1
132 26 18 23 21 41 21 115 l0 89 165 0 165 0 0 -225z"/>
<path d="M1412 3547 c-17 -18 -30 -71 -66 -272 -25 -137 -46 -263 -46 -280 0
-53 54 -88 105 -69 26 10 41 52 60 167 10 59 21 104 25 100 4 -4 12 -28 19
-53 55 -198 68 -220 131 -220 54 0 74 28 113 165 19 66 37 113 40 105 3 -8 14
-64 26 -125 22 -117 39 -145 86 -145 34 0 75 37 75 68 0 37 -88 501 -102 535
-13 34 -36 47 -81 47 -52 0 -70 -30 -111 -175 -20 -71 -39 -137 -42 -145 -6
-15 -11 -1 -69 193 -15 49 -35 97 -46 108 -27 27 -89 26 -117 -4z"/>
<path d="M2145 3545 l-25 -24 0 -279 c0 -349 -15 -322 183 -322 124 0 139 2
157 20 25 25 26 71 1 101 -17 21 -29 24 -105 28 l-86 3 0 49 0 49 71 0 c39 0
79 5 90 11 29 15 42 57 29 90 -15 36 -49 49 -125 49 l-65 0 0 50 0 50 79 0
c64 0 83 4 105 21 36 28 36 80 0 108 -24 19 -40 21 -156 21 -124 0 -130 -1
-153 -25z"/>
<path d="M2680 3550 c-19 -19 -20 -33 -20 -305 0 -272 1 -286 20 -305 27 -27
81 -26 106 1 16 18 20 42 24 164 l5 143 99 -145 c112 -163 136 -187 181 -179
64 13 65 19 65 321 0 260 -1 273 -21 299 -23 30 -72 35 -105 12 -17 -13 -20
-31 -24 -168 l-5 -153 -99 145 c-55 80 -108 155 -119 168 -26 28 -79 30 -107
2z"/>
<path d="M3340 3548 c-19 -20 -20 -34 -20 -232 0 -239 6 -261 76 -329 54 -52
107 -70 192 -65 84 4 150 40 197 107 l30 43 3 225 c4 260 0 273 -67 273 -26 0
-44 -7 -57 -21 -17 -19 -19 -40 -22 -213 -1 -105 -4 -201 -7 -213 -12 -53
-113 -70 -164 -27 l-31 26 0 202 c0 190 -1 204 -20 224 -28 30 -82 30 -110 0z"/>
<path d="M2034 2201 c-89 -54 -55 -181 49 -181 57 0 97 38 97 94 0 50 -15 75
-55 92 -44 18 -54 18 -91 -5z"/>
<path d="M2993 2205 c-38 -16 -53 -42 -53 -91 0 -114 168 -130 196 -20 9 37
-14 85 -50 107 -36 22 -50 23 -93 4z"/>
<path d="M2295 1895 c-14 -13 -25 -36 -25 -50 0 -14 11 -37 25 -50 l24 -25
241 0 241 0 24 25 c14 13 25 36 25 50 0 14 -11 37 -25 50 l-24 25 -241 0 -241
0 -24 -25z"/>
</g>
</svg>
