<?xml version="1.0" standalone="no"?>
<!DOCTYPE svg PUBLIC "-//W3C//DTD SVG 20010904//EN"
 "http://www.w3.org/TR/2001/REC-SVG-20010904/DTD/svg10.dtd">
<svg version="1.0" xmlns="http://www.w3.org/2000/svg"
 width="512.000000pt" height="512.000000pt" viewBox="0 0 512.000000 512.000000"
 preserveAspectRatio="xMidYMid meet">

<g transform="translate(0.000000,512.000000) scale(0.100000,-0.100000)"
fill="#000000" stroke="none">
<path d="M317 5109 c-103 -24 -188 -95 -234 -194 l-28 -60 0 -2295 0 -2295 28
-60 c36 -78 95 -137 171 -172 l61 -28 2245 0 2245 0 61 28 c76 35 135 94 171
172 l28 60 3 1920 c2 1446 0 1925 -9 1942 -25 46 -91 47 -123 1 -15 -20 -16
-194 -16 -1923 0 -1826 -1 -1902 -19 -1940 -22 -48 -54 -79 -103 -100 -31 -12
-89 -15 -333 -15 -162 0 -295 2 -295 4 0 2 10 25 22 52 12 27 24 80 27 119 l6
70 160 5 c183 6 207 14 253 82 l27 42 3 923 2 923 34 45 c57 74 61 97 61 345
0 249 -4 271 -61 346 l-34 44 0 146 0 146 31 36 c62 70 64 83 64 347 0 263 -3
278 -64 348 l-29 33 -4 195 c-3 194 -3 196 -30 237 -46 68 -70 76 -253 82
l-160 5 -6 70 c-3 39 -15 92 -27 119 -12 27 -22 50 -22 52 0 2 134 4 298 4
267 0 301 -2 337 -19 48 -22 79 -54 100 -103 12 -29 15 -78 15 -221 0 -168 2
-186 20 -209 11 -14 28 -28 38 -30 30 -8 81 18 87 45 4 14 5 114 3 223 -3 194
-4 201 -31 260 -35 76 -94 135 -172 171 l-60 28 -2225 2 c-1272 0 -2241 -3
-2263 -8z m293 -2163 l0 -2023 21 -27 c27 -34 79 -36 109 -4 20 22 20 23 20
2050 l0 2028 965 0 965 0 0 -306 c0 -187 4 -322 11 -348 19 -77 108 -137 179
-121 17 4 94 36 170 71 l140 65 137 -64 c76 -35 151 -67 166 -71 71 -17 165
43 186 119 7 25 11 155 11 348 l0 307 113 0 c131 0 179 -17 231 -83 l31 -39 0
-2288 0 -2288 -31 -39 c-16 -21 -50 -48 -74 -60 l-44 -23 -1578 0 -1578 0 0
232 c0 224 -1 232 -22 255 -26 28 -67 30 -99 4 -24 -19 -24 -21 -27 -255 l-3
-236 -127 0 c-138 0 -185 13 -229 61 -57 62 -53 -100 -53 2349 0 2449 -4 2287
53 2349 44 48 91 61 230 61 l127 0 0 -2024z m2930 1715 c0 -171 -4 -312 -8
-315 -5 -3 -66 22 -136 55 -206 96 -204 96 -413 -1 -70 -32 -131 -56 -135 -53
-5 2 -8 143 -8 314 l0 309 350 0 350 0 0 -309z m974 -107 c3 -9 6 -76 6 -150
l0 -134 -150 0 -150 0 0 150 0 150 144 0 c122 0 145 -2 150 -16z m42 -453 c57
-34 64 -67 64 -281 0 -212 -5 -235 -63 -270 -28 -18 -51 -20 -184 -20 l-153 0
0 295 0 295 153 0 c131 0 156 -3 183 -19z m-36 -806 l0 -85 -150 0 -150 0 0
85 0 85 150 0 150 0 0 -85z m29 -253 c64 -34 71 -62 71 -282 0 -176 -2 -198
-20 -227 -37 -62 -57 -68 -225 -68 l-150 0 -3 298 -2 297 148 0 c124 0 153 -3
181 -18z m-29 -1596 c0 -475 -3 -871 -6 -880 -5 -14 -28 -16 -150 -16 l-144 0
0 880 0 880 150 0 150 0 0 -864z"/>
<path d="M2315 3890 c-110 -22 -229 -91 -301 -175 l-45 -52 -102 5 c-75 3
-119 0 -167 -12 -225 -58 -387 -249 -407 -481 -12 -144 41 -294 142 -404 80
-86 157 -131 272 -161 l42 -10 3 -348 c3 -384 4 -386 70 -434 l33 -23 562 0
c554 0 562 0 590 21 15 11 38 36 51 54 22 33 22 37 22 380 l0 348 53 12 c182
43 344 202 392 385 19 76 19 204 -1 280 -36 140 -146 274 -277 339 -96 47
-160 59 -278 54 l-97 -5 -67 68 c-133 134 -317 193 -490 159z m248 -170 c45
-17 80 -43 152 -110 54 -51 104 -89 120 -92 15 -3 73 -3 130 -1 146 8 233 -24
323 -117 66 -69 95 -140 100 -245 5 -110 -16 -180 -78 -261 -54 -68 -121 -111
-221 -139 -145 -41 -159 -68 -159 -314 l0 -181 -509 0 -509 0 -3 188 c-4 174
-6 190 -27 224 -24 38 -79 71 -142 83 -123 25 -235 130 -279 263 -62 182 29
387 209 471 51 24 66 26 195 27 93 0 148 5 165 13 14 7 54 44 90 81 65 67 136
112 207 130 57 14 171 4 236 -20z m367 -1695 l0 -85 -510 0 -510 0 0 85 0 85
510 0 510 0 0 -85z"/>
<path d="M1757 1467 c-53 -17 -106 -63 -128 -111 -38 -84 -15 -159 49 -159 40
0 68 25 79 71 6 23 18 42 35 51 23 13 28 13 51 -2 16 -10 29 -30 33 -51 8 -44
36 -69 75 -69 115 0 84 193 -41 258 -38 20 -111 26 -153 12z"/>
<path d="M2970 1471 c-42 -14 -84 -38 -107 -63 -42 -45 -64 -127 -47 -173 11
-28 59 -46 91 -34 33 12 40 21 54 72 21 77 97 69 119 -12 12 -47 32 -64 71
-64 108 0 90 180 -25 248 -46 27 -116 39 -156 26z"/>
<path d="M2249 1178 c-31 -10 -54 -56 -44 -86 11 -37 82 -90 141 -108 125 -36
284 36 284 130 0 67 -73 91 -130 42 -53 -44 -112 -46 -155 -6 -30 28 -66 38
-96 28z"/>
</g>
</svg>
