<?xml version="1.0" standalone="no"?>
<!DOCTYPE svg PUBLIC "-//W3C//DTD SVG 20010904//EN"
 "http://www.w3.org/TR/2001/REC-SVG-20010904/DTD/svg10.dtd">
<svg version="1.0" xmlns="http://www.w3.org/2000/svg"
 width="512.000000pt" height="512.000000pt" viewBox="0 0 512.000000 512.000000"
 preserveAspectRatio="xMidYMid meet">

<g transform="translate(0.000000,512.000000) scale(0.100000,-0.100000)"
fill="#000000" stroke="none">
<path d="M2490 5111 c-115 -38 -180 -112 -205 -231 l-11 -55 -779 -437 -780
-437 -260 -1 c-143 0 -276 -4 -295 -10 -52 -14 -109 -67 -136 -124 l-24 -51 0
-1451 0 -1451 21 -27 c28 -36 80 -36 108 0 l21 27 0 1444 0 1444 25 24 24 25
1234 0 c1234 0 1234 0 1261 21 30 23 35 72 12 105 -14 18 -37 19 -847 24
l-832 5 464 260 c255 142 547 305 648 362 101 57 187 103 190 103 3 0 21 -16
39 -34 51 -52 114 -78 191 -78 80 1 128 19 187 74 36 33 49 40 62 32 9 -6 303
-170 652 -365 l634 -354 -597 -5 c-544 -5 -598 -6 -613 -22 -27 -27 -22 -77
10 -105 l27 -23 1000 0 1000 0 24 -25 25 -24 0 -1765 c0 -1272 -3 -1772 -11
-1789 -6 -14 -22 -30 -36 -36 -17 -8 -672 -11 -2372 -11 l-2348 0 -27 26 -26
27 0 207 c0 231 -3 244 -67 256 -26 5 -37 1 -58 -20 l-26 -26 3 -228 3 -229
30 -49 c19 -30 49 -60 79 -79 l49 -30 2385 -3 2385 -2 52 24 c55 25 94 67 120
129 13 32 15 241 15 1824 l0 1788 -24 51 c-27 57 -84 110 -136 124 -19 6 -152
10 -295 11 l-260 0 -780 437 -779 437 -11 55 c-21 99 -68 166 -149 207 -54 27
-150 39 -196 24z m144 -164 c34 -23 59 -82 52 -123 -9 -45 -50 -91 -92 -103
-104 -29 -195 81 -147 176 35 68 123 91 187 50z"/>
<path d="M338 3654 c-62 -33 -58 80 -58 -1679 0 -1772 -5 -1640 60 -1679 26
-15 209 -16 2222 -16 1764 1 2198 3 2216 14 13 7 32 26 43 42 18 28 19 51 19
497 l0 468 -25 24 c-31 32 -69 32 -100 0 l-25 -24 0 -436 0 -435 -2130 0
-2130 0 0 1545 0 1545 2130 0 2130 0 0 -990 0 -991 25 -24 c31 -32 69 -32 100
0 l25 24 0 1021 c0 1121 3 1062 -60 1095 -26 13 -281 15 -2222 15 -1920 -1
-2196 -3 -2220 -16z"/>
<path d="M2510 3390 c-11 -11 -20 -24 -20 -28 0 -4 -26 -13 -57 -20 -32 -7
-87 -26 -123 -43 -54 -25 -66 -28 -75 -16 -17 24 -53 38 -80 31 -49 -12 -71
-78 -41 -119 12 -16 8 -26 -36 -91 -69 -101 -99 -194 -106 -320 l-5 -102 -38
-15 c-59 -23 -79 -65 -79 -166 0 -125 8 -135 183 -212 250 -110 214 -102 472
-107 293 -5 337 1 506 73 256 109 259 112 259 247 0 101 -20 142 -80 165 l-40
16 0 71 c-1 138 -41 262 -120 367 -36 48 -38 54 -24 73 57 83 -61 170 -121 89
-9 -12 -21 -9 -75 16 -36 17 -91 36 -122 43 -32 7 -58 16 -58 20 0 19 -42 48
-70 48 -17 0 -39 -9 -50 -20z m-25 -230 c7 -42 43 -80 75 -80 32 0 68 38 75
80 6 37 9 39 33 34 15 -4 48 -15 73 -26 l46 -19 -5 -45 c-6 -57 15 -84 68 -84
20 0 41 5 47 11 8 8 18 -1 37 -33 42 -72 58 -128 63 -225 l6 -93 -443 0 -443
0 6 93 c5 97 21 153 63 225 19 32 29 41 37 33 6 -6 27 -11 47 -11 53 0 74 27
68 85 -3 25 -5 45 -4 45 0 0 28 11 61 25 33 13 65 25 72 25 6 0 14 -18 18 -40z
m635 -662 c0 -33 -1 -33 -152 -98 l-152 -65 -256 0 -255 0 -153 65 c-151 65
-152 65 -152 98 l0 32 560 0 560 0 0 -32z"/>
<path d="M2469 2852 c-33 -27 -30 -78 5 -109 22 -18 39 -23 86 -23 74 0 113
28 113 80 0 51 -30 70 -113 70 -51 0 -73 -5 -91 -18z"/>
<path d="M1355 2005 c-14 -13 -25 -32 -25 -41 0 -9 25 -143 56 -298 62 -314
69 -330 140 -330 54 0 73 30 123 194 24 80 46 148 50 152 3 4 28 -63 54 -150
26 -86 53 -163 60 -170 31 -38 115 -33 138 9 11 22 119 551 119 586 0 13 -12
35 -26 50 -20 20 -31 24 -57 19 -17 -4 -38 -13 -45 -20 -8 -7 -27 -80 -43
-162 -16 -81 -31 -150 -33 -152 -4 -4 -5 -1 -61 181 -38 124 -59 157 -99 157
-49 0 -72 -37 -117 -185 -23 -77 -45 -143 -48 -147 -4 -5 -20 58 -36 139 -22
116 -33 152 -51 170 -30 30 -69 29 -99 -2z"/>
<path d="M2339 2015 c-156 -50 -258 -197 -247 -356 22 -308 397 -436 603 -206
64 71 88 141 83 247 -4 66 -10 96 -30 135 -32 63 -113 139 -175 166 -63 27
-173 34 -234 14z m176 -154 c78 -36 115 -95 115 -182 0 -91 -57 -164 -148
-189 -119 -31 -242 66 -242 191 1 142 148 239 275 180z"/>
<path d="M2888 2010 l-28 -21 0 -300 c0 -193 4 -307 11 -320 25 -48 105 -44
128 7 6 14 11 57 11 96 l0 70 47 -53 c122 -137 139 -152 173 -152 40 0 70 32
70 74 0 22 -18 50 -72 111 -66 74 -70 82 -53 92 158 92 168 295 18 383 -44 25
-58 28 -163 31 -106 4 -117 2 -142 -18z m225 -141 c28 -15 37 -28 37 -58 0
-42 -27 -61 -87 -61 l-53 0 0 65 0 65 41 0 c22 0 50 -5 62 -11z"/>
<path d="M3432 2023 c-7 -3 -19 -18 -27 -33 -12 -24 -15 -82 -15 -314 0 -284
0 -285 23 -312 28 -32 76 -37 106 -9 16 14 21 33 23 96 l3 79 103 -97 c83 -77
110 -96 133 -96 40 0 72 33 72 75 0 28 -15 47 -126 154 -70 67 -127 124 -127
126 0 3 48 49 108 103 59 54 113 109 120 122 26 47 -12 103 -70 103 -21 0 -51
-21 -120 -85 l-93 -84 -3 69 c-3 61 -6 72 -29 90 -25 19 -54 24 -81 13z"/>
<path d="M603 1148 c-39 -19 -44 -53 -41 -256 3 -210 5 -216 65 -228 26 -5 37
-1 57 19 l26 26 0 199 c0 176 -2 202 -17 220 -22 26 -61 35 -90 20z"/>
<path d="M820 1147 c-46 -23 -51 -47 -48 -250 l3 -189 28 -24 c34 -29 56 -30
90 -4 23 18 26 29 29 88 l3 67 35 -49 c66 -93 90 -116 122 -116 79 0 88 30 81
261 -7 195 -11 212 -64 224 -19 5 -34 0 -55 -18 -25 -21 -30 -35 -34 -87 l-5
-62 -53 77 c-30 42 -65 80 -79 86 -29 11 -23 11 -53 -4z"/>
<path d="M1364 1148 c-38 -18 -44 -50 -44 -249 0 -188 0 -190 25 -214 31 -32
69 -32 100 0 20 19 25 34 25 75 0 48 1 50 27 50 39 0 110 37 134 71 71 101 22
238 -96 268 -54 14 -143 13 -171 -1z m144 -150 c8 -8 9 -15 1 -25 -18 -21 -39
-15 -39 12 0 27 18 33 38 13z"/>
<path d="M1753 1151 c-39 -17 -43 -41 -43 -250 l0 -200 26 -20 c15 -12 33 -21
40 -21 29 0 63 24 75 52 l12 30 34 -36 c44 -46 76 -55 111 -29 44 32 42 82 -4
133 l-37 41 25 27 c37 39 48 65 48 112 0 58 -26 107 -72 138 -32 21 -53 26
-116 29 -42 1 -87 -1 -99 -6z m135 -159 c2 -7 -3 -12 -12 -12 -9 0 -16 7 -16
16 0 17 22 14 28 -4z"/>
<path d="M2242 1141 c-103 -36 -166 -123 -166 -231 -1 -259 347 -342 464 -110
67 133 -6 301 -149 344 -68 20 -83 20 -149 -3z m113 -145 c93 -39 74 -166 -27
-182 -29 -5 -41 -1 -69 24 -28 25 -34 37 -34 70 0 45 31 88 69 95 11 2 22 5
24 6 1 0 18 -5 37 -13z"/>
<path d="M2785 1151 c-191 -49 -257 -280 -120 -417 44 -43 117 -74 176 -74 41
0 111 28 143 58 68 64 99 199 56 242 -11 11 -29 20 -41 20 -11 0 -19 3 -17 8
2 4 10 20 18 35 10 20 11 36 4 54 -17 51 -144 93 -219 74z m82 -152 l28 -11
-35 -11 c-62 -21 -68 -102 -8 -133 24 -12 28 -18 17 -25 -44 -28 -129 30 -129
89 0 33 32 79 64 92 28 12 30 12 63 -1z"/>
<path d="M3150 1154 c-49 -21 -50 -25 -50 -245 l0 -208 26 -20 c15 -12 33 -21
40 -21 30 0 64 25 74 54 l11 31 33 -37 c44 -48 79 -57 114 -31 43 32 41 78 -4
131 l-37 43 25 27 c37 39 48 65 48 113 0 58 -38 121 -87 144 -38 18 -164 30
-193 19z m128 -162 c2 -7 -3 -12 -12 -12 -9 0 -16 7 -16 16 0 17 22 14 28 -4z"/>
<path d="M3917 1146 c-76 -27 -112 -82 -105 -158 7 -64 40 -99 129 -134 38
-15 66 -31 62 -36 -8 -14 -61 -1 -90 22 -76 59 -162 -28 -102 -104 61 -78 212
-97 286 -37 106 87 73 228 -67 281 -56 21 -57 30 -3 23 46 -5 54 -3 77 20 51
51 26 109 -54 126 -65 14 -86 13 -133 -3z"/>
<path d="M4317 1147 c-51 -17 -94 -60 -108 -110 -9 -35 -8 -49 8 -87 17 -41
25 -48 100 -85 46 -22 83 -43 83 -47 0 -17 -48 -7 -80 17 -62 46 -133 21 -133
-45 0 -63 105 -131 200 -130 41 1 105 33 135 68 40 47 45 103 16 160 -21 41
-34 52 -98 84 l-75 37 56 -6 c49 -5 59 -3 78 16 30 30 26 87 -9 112 -32 23
-124 32 -173 16z"/>
<path d="M3490 1130 c-19 -19 -20 -33 -20 -219 0 -256 -6 -246 145 -246 100 0
108 1 126 24 46 57 7 121 -74 121 -26 0 -47 5 -47 10 0 6 14 10 30 10 37 0 85
23 94 45 22 59 -13 105 -79 105 -25 0 -45 5 -45 10 0 6 13 10 29 10 41 0 90
19 101 40 16 30 12 68 -10 90 -17 17 -33 20 -125 20 -92 0 -108 -3 -125 -20z"/>
</g>
</svg>
